<svg width="200" height="32" viewBox="0 0 200 32" fill="none" xmlns="http://www.w3.org/2000/svg">
<path fill-rule="evenodd" clip-rule="evenodd" d="M119.594 29.7162C119.934 30.6527 120.824 31.276 121.82 31.2755C122.817 31.275 123.706 30.6508 124.045 29.7139L133.296 4.16985C133.741 2.94027 133.105 1.58253 131.876 1.13725C130.646 0.691975 129.289 1.32778 128.843 2.55735L121.816 21.9634L114.765 2.55508C114.318 1.32596 112.96 0.691544 111.731 1.13808C110.501 1.58461 109.867 2.94299 110.314 4.17212L119.594 29.7162ZM188.696 29.3921C188.932 30.4386 189.862 31.1816 190.935 31.1816C192.008 31.1816 192.938 30.4386 193.175 29.3921L198.948 3.87023C199.228 2.63339 198.452 1.40392 197.215 1.12413C195.978 0.844348 194.749 1.6202 194.469 2.85704L190.935 18.4788L187.401 2.85705C187.165 1.81081 186.235 1.06786 185.162 1.06756C184.09 1.06727 183.16 1.80971 182.922 2.85582L179.374 18.504L175.825 2.85581C175.544 1.61912 174.314 0.843945 173.078 1.12441C171.841 1.40488 171.066 2.63477 171.346 3.87146L177.134 29.3933C177.372 30.4392 178.301 31.1815 179.374 31.1815C180.446 31.1815 181.376 30.4392 181.613 29.3933L185.159 13.7577L188.696 29.3921ZM147.459 16.1821C147.459 7.83457 154.226 1.06753 162.573 1.06753H167.242C168.51 1.06753 169.538 2.09552 169.538 3.36362C169.538 4.63171 168.51 5.6597 167.242 5.6597H162.573C157.551 5.6597 153.35 9.17889 152.302 13.8861H167.242C168.51 13.8861 169.538 14.914 169.538 16.1821C169.538 17.4502 168.51 18.4782 167.242 18.4782H152.302C153.35 23.1854 157.551 26.7046 162.573 26.7046H167.242C168.51 26.7046 169.538 27.7326 169.538 29.0007C169.538 30.2687 168.51 31.2967 167.242 31.2967H162.573C154.226 31.2967 147.459 24.5297 147.459 16.1821ZM143.173 16.9567C143.173 15.649 142.113 14.5888 140.805 14.5888C139.498 14.5888 138.437 15.649 138.437 16.9567V28.9077C138.437 30.2154 139.498 31.2755 140.805 31.2755C142.113 31.2755 143.173 30.2154 143.173 28.9077V16.9567ZM140.805 1.21049C141.836 1.21049 142.671 2.04573 142.671 3.07606V4.28406L143.717 3.68007C144.609 3.16491 145.75 3.47063 146.265 4.36292C146.781 5.25521 146.475 6.39617 145.583 6.91134L144.536 7.51535L145.583 8.11936C146.475 8.63453 146.781 9.77549 146.265 10.6678C145.75 11.5601 144.609 11.8658 143.717 11.3506L142.671 10.7466V11.9546C142.671 12.985 141.836 13.8202 140.805 13.8202C139.775 13.8202 138.94 12.985 138.94 11.9546V10.7466L137.893 11.3506C137.001 11.8658 135.86 11.5601 135.345 10.6678C134.83 9.7755 135.136 8.63453 136.028 8.11937L137.074 7.51534L136.028 6.91133C135.136 6.39617 134.83 5.2552 135.345 4.36291C135.86 3.47063 137.001 3.1649 137.893 3.68007L138.94 4.28411V3.07606C138.94 2.04573 139.775 1.21049 140.805 1.21049ZM13.8446 2.56511C13.5044 1.6286 12.6142 1.00528 11.6178 1.00579C10.6214 1.0063 9.73197 1.63052 9.39269 2.56738L0.142136 28.1115C-0.303145 29.341 0.33266 30.6988 1.56224 31.1441C2.79183 31.5893 4.14958 30.9535 4.59486 29.7239L11.6226 10.3179L18.6735 29.7262C19.1201 30.9553 20.4785 31.5898 21.7076 31.1432C22.9367 30.6967 23.5711 29.3383 23.1246 28.1092L13.8446 2.56511ZM48.7073 3.37357C48.7073 2.10548 47.6793 1.07748 46.4112 1.07748C45.1432 1.07748 44.1152 2.10548 44.1152 3.37357V14.582L36.8946 24.3232C35.823 25.769 34.1298 26.6216 32.3301 26.6216C30.304 26.6216 28.6615 24.9791 28.6615 22.953V3.37357C28.6615 2.10548 27.6335 1.07748 26.3654 1.07748C25.0973 1.07748 24.0693 2.10548 24.0693 3.37357V22.953C24.0693 27.5153 27.7678 31.2137 32.3301 31.2137C35.5843 31.2137 38.6461 29.672 40.5839 27.0578L44.1152 22.2937V22.953C44.1152 27.5153 47.8136 31.2137 52.376 31.2137C55.6301 31.2137 58.6919 29.672 60.6297 27.0578L65.0618 21.0784C67.1018 27.0127 72.7324 31.2771 79.359 31.2771H84.0275C85.2956 31.2771 86.3236 30.2491 86.3236 28.981C86.3236 27.7129 85.2956 26.6849 84.0275 26.6849H79.359C74.3363 26.6849 70.1355 23.1657 69.0878 18.4585H84.0275C85.2956 18.4585 86.3236 17.4306 86.3236 16.1625C86.3236 14.8944 85.2956 13.8664 84.0275 13.8664H69.0878C70.1355 9.15921 74.3363 5.64002 79.3591 5.64002H84.0275C85.2956 5.64002 86.3236 4.61203 86.3236 3.34393C86.3236 2.07584 85.2956 1.04785 84.0275 1.04785H79.3591C71.635 1.04785 65.2641 6.84171 64.3555 14.3205C64.3492 14.3286 64.3429 14.3368 64.3368 14.345C64.333 14.35 64.3292 14.355 64.3255 14.3601L56.9405 24.3232C55.8688 25.769 54.1756 26.6216 52.376 26.6216C50.3498 26.6216 48.7073 24.9791 48.7073 22.953V3.37357ZM101.262 1.11765C101.33 1.11697 101.399 1.11931 101.469 1.12479C110.942 1.87354 112.123 14.5035 104.537 17.75L109.228 27.9302C109.759 29.0819 109.255 30.4458 108.104 30.9765C106.952 31.5072 105.588 31.0037 105.057 29.852L99.8176 18.4806H92.6607V28.8911C92.6607 30.1592 91.6327 31.1872 90.3646 31.1872C89.0965 31.1872 88.0685 30.1592 88.0685 28.8911V3.41374C88.0685 2.14565 89.0965 1.11766 90.3646 1.11765L101.262 1.11765ZM101.189 5.70982L92.6607 5.70983V13.8885H101.195C106.041 13.4564 106.249 6.18787 101.189 5.70982Z" fill="#FFC31B"/>
<path fill-rule="evenodd" clip-rule="evenodd" d="M120.589 28.7211C120.929 29.6576 121.819 30.2809 122.815 30.2804C123.812 30.2799 124.701 29.6557 125.04 28.7188L134.291 3.17473C134.736 1.94516 134.1 0.587416 132.871 0.142137C131.641 -0.303143 130.284 0.33266 129.838 1.56224L122.811 20.9683L115.76 1.55997C115.313 0.330843 113.955 -0.303573 112.726 0.142958C111.496 0.58949 110.862 1.94788 111.309 3.177L120.589 28.7211ZM189.691 28.397C189.927 29.4434 190.857 30.1865 191.93 30.1865C193.003 30.1865 193.933 29.4434 194.17 28.397L199.943 2.87512C200.223 1.63827 199.447 0.4088 198.21 0.129015C196.973 -0.150772 195.744 0.625076 195.464 1.86192L191.93 17.4837L188.396 1.86193C188.16 0.815695 187.23 0.0727409 186.157 0.0724452C185.085 0.0721495 184.155 0.814595 183.917 1.8607L180.369 17.5088L176.82 1.86069C176.539 0.623997 175.309 -0.151174 174.073 0.129291C172.836 0.409757 172.061 1.63965 172.341 2.87634L178.129 28.3982C178.367 29.444 179.296 30.1864 180.369 30.1864C181.441 30.1864 182.371 29.444 182.608 28.3982L186.154 12.7626L189.691 28.397ZM148.454 15.187C148.454 6.83945 155.221 0.0724105 163.568 0.0724105H168.237C169.505 0.0724105 170.533 1.1004 170.533 2.3685C170.533 3.63659 169.505 4.66458 168.237 4.66458H163.568C158.546 4.66458 154.345 8.18377 153.297 12.8909H168.237C169.505 12.8909 170.533 13.9189 170.533 15.187C170.533 16.4551 169.505 17.4831 168.237 17.4831H153.297C154.345 22.1903 158.546 25.7094 163.568 25.7094H168.237C169.505 25.7094 170.533 26.7374 170.533 28.0055C170.533 29.2736 169.505 30.3016 168.237 30.3016H163.568C155.221 30.3016 148.454 23.5346 148.454 15.187ZM144.168 15.9616C144.168 14.6538 143.108 13.5937 141.8 13.5937C140.493 13.5937 139.432 14.6538 139.432 15.9616V27.9126C139.432 29.2203 140.493 30.2804 141.8 30.2804C143.108 30.2804 144.168 29.2203 144.168 27.9126V15.9616ZM141.8 0.215367C142.831 0.215367 143.666 1.05061 143.666 2.08094V3.28894L144.712 2.68495C145.604 2.16979 146.745 2.47551 147.26 3.3678C147.776 4.26009 147.47 5.40105 146.578 5.91622L145.531 6.52023L146.578 7.12425C147.47 7.63941 147.776 8.78037 147.26 9.67266C146.745 10.565 145.604 10.8707 144.712 10.3555L143.666 9.75152V10.9595C143.666 11.9899 142.831 12.8251 141.8 12.8251C140.77 12.8251 139.935 11.9899 139.935 10.9595V9.75146L138.888 10.3555C137.996 10.8707 136.855 10.565 136.34 9.67267C135.825 8.78038 136.131 7.63941 137.023 7.12425L138.069 6.52023L137.023 5.91621C136.131 5.40105 135.825 4.26008 136.34 3.3678C136.855 2.47551 137.996 2.16979 138.888 2.68495L139.935 3.28899V2.08094C139.935 1.05061 140.77 0.215367 141.8 0.215367ZM14.8396 1.56999C14.4994 0.633482 13.6092 0.0101628 12.6128 0.0106695C11.6164 0.0111788 10.727 0.635405 10.3877 1.57226L1.13713 27.1163C0.691851 28.3459 1.32765 29.7037 2.55724 30.1489C3.78682 30.5942 5.14457 29.9584 5.58985 28.7288L12.6176 9.32275L19.6685 28.7311C20.1151 29.9602 21.4735 30.5946 22.7026 30.1481C23.9317 29.7016 24.5661 28.3432 24.1196 27.1141L14.8396 1.56999ZM49.7023 2.37845C49.7023 1.11036 48.6743 0.0823675 47.4062 0.0823675C46.1381 0.0823675 45.1101 1.11036 45.1101 2.37845V13.5869L37.8896 23.3281C36.818 24.7739 35.1248 25.6264 33.3251 25.6264C31.299 25.6264 29.6565 23.984 29.6565 21.9578V2.37845C29.6565 1.11036 28.6285 0.0823675 27.3604 0.0823675C26.0923 0.0823675 25.0643 1.11036 25.0643 2.37845V21.9578C25.0643 26.5201 28.7628 30.2186 33.3251 30.2186C36.5793 30.2186 39.6411 28.6769 41.5789 26.0626L45.1101 21.2986V21.9578C45.1101 26.5201 48.8086 30.2186 53.371 30.2186C56.6251 30.2186 59.6869 28.6769 61.6247 26.0626L66.0568 20.0833C68.0968 26.0175 73.7274 30.2819 80.354 30.2819H85.0225C86.2906 30.2819 87.3186 29.2539 87.3186 27.9859C87.3186 26.7178 86.2906 25.6898 85.0225 25.6898H80.354C75.3313 25.6898 71.1305 22.1706 70.0828 17.4634H85.0225C86.2906 17.4634 87.3186 16.4354 87.3186 15.1673C87.3186 13.8992 86.2906 12.8713 85.0225 12.8713H70.0828C71.1305 8.16409 75.3313 4.6449 80.3541 4.6449H85.0225C86.2906 4.6449 87.3186 3.61691 87.3186 2.34882C87.3186 1.08072 86.2906 0.0527287 85.0225 0.0527287H80.3541C72.63 0.0527287 66.2591 5.84659 65.3505 13.3254C65.3442 13.3335 65.3379 13.3417 65.3317 13.3499C65.328 13.3549 65.3242 13.3599 65.3205 13.365L57.9355 23.3281C56.8638 24.7739 55.1706 25.6264 53.371 25.6264C51.3448 25.6264 49.7023 23.984 49.7023 21.9578V2.37845ZM102.257 0.122536C102.325 0.121849 102.394 0.124188 102.464 0.129675C111.937 0.878425 113.118 13.5084 105.532 16.7549L110.223 26.9351C110.754 28.0868 110.25 29.4507 109.099 29.9814C107.947 30.5121 106.583 30.0086 106.052 28.8569L100.813 17.4855H93.6557V27.896C93.6557 29.1641 92.6277 30.1921 91.3596 30.1921C90.0915 30.1921 89.0635 29.1641 89.0635 27.896V2.41862C89.0635 1.15053 90.0915 0.122538 91.3596 0.122538L102.257 0.122536ZM102.184 4.71471L93.6557 4.71471V12.8933H102.19C107.036 12.4613 107.244 5.19276 102.184 4.71471Z" fill="#FFD800"/>
</svg>
