<svg width="240" height="240" viewBox="0 0 240 240" fill="none" xmlns="http://www.w3.org/2000/svg">
<path fill-rule="evenodd" clip-rule="evenodd" d="M28.5476 51.825C29.6912 47.5571 27.1584 43.1701 22.8904 42.0265C18.6225 40.8829 14.2356 43.4157 13.092 47.6837L5.08095 77.5812C0.579139 94.3822 10.5496 111.652 27.3506 116.153C27.6523 116.234 27.9543 116.31 28.2563 116.382C33.307 146.782 51.5664 174.365 79.647 190.578C103.911 204.587 132.83 208.351 159.878 201.104C164.145 199.96 166.678 195.573 165.535 191.305C164.391 187.037 160.004 184.505 155.736 185.648C132.772 191.801 108.222 188.6 87.6474 176.721C64.4921 163.352 49.2072 140.871 44.4313 115.939C54.5853 112.927 62.9806 104.864 65.9227 93.8837L73.9337 63.9862C75.0773 59.7183 72.5445 55.3313 68.2766 54.1877C64.0086 53.0441 59.6217 55.5769 58.4781 59.8449L50.467 89.7424C49.3155 94.0399 46.4659 97.4289 42.8336 99.381C42.8077 90.6938 44.0497 81.892 46.662 73.2336L51.75 56.3689C53.0263 52.1387 50.6316 47.6749 46.4014 46.3986C42.1712 45.1224 37.7074 47.517 36.4311 51.7472L31.3431 68.6119C28.3496 78.534 26.8828 88.6157 26.832 98.5778C21.5038 94.982 18.7796 88.2798 20.5366 81.7225L28.5476 51.825Z" fill="white"/>
<path d="M133.169 106.008C130.919 106.008 129.317 105.586 128.365 104.742C127.413 103.898 126.937 102.35 126.937 100.1V78.2202L131.222 80.525L112.166 91.5296C111.474 91.8975 110.814 92.2005 110.186 92.4385C109.58 92.6766 109.018 92.7956 108.498 92.7956C107.568 92.7956 106.745 92.4926 106.031 91.8867C105.338 91.2807 104.657 90.3826 103.986 89.1923L103.791 88.9002C103.38 88.1427 103.045 87.4394 102.785 86.7901C102.547 86.1409 102.428 85.535 102.428 84.9723C102.428 84.085 102.72 83.2951 103.304 82.6026C103.91 81.91 104.776 81.25 105.901 80.6224L125.313 69.423V74.065L105.934 63.4175C104.787 62.7899 103.943 62.1298 103.402 61.4373C102.861 60.7448 102.59 59.9657 102.59 59.1001C102.59 58.5374 102.698 57.9422 102.915 57.3146C103.131 56.6654 103.412 55.9621 103.759 55.2046L103.953 54.8475C104.516 53.5923 105.165 52.6618 105.901 52.0558C106.637 51.4282 107.449 51.1144 108.336 51.1144C108.898 51.1144 109.504 51.2334 110.154 51.4715C110.803 51.7095 111.485 52.0342 112.199 52.4453L131.222 63.45L126.937 65.7548V43.9078C126.937 41.6571 127.413 40.1098 128.365 39.2658C129.317 38.4218 130.919 37.9998 133.169 37.9998H133.591C135.842 37.9998 137.443 38.4218 138.396 39.2658C139.348 40.1098 139.824 41.6571 139.824 43.9078V65.7548L135.636 63.45L154.594 52.4453C155.308 52.0774 155.968 51.7853 156.574 51.5689C157.18 51.3308 157.743 51.2118 158.262 51.2118C159.15 51.2118 159.95 51.5148 160.665 52.1207C161.379 52.705 162.093 53.5923 162.807 54.7826L163.034 55.2046C163.445 55.9404 163.759 56.6221 163.976 57.2497C164.214 57.8773 164.333 58.4725 164.333 59.0351C164.333 59.9441 164.041 60.7448 163.456 61.4373C162.872 62.1298 162.017 62.7791 160.892 63.385L141.544 74.065V69.423L160.924 80.6224C162.05 81.25 162.915 81.9208 163.521 82.635C164.127 83.3275 164.43 84.1283 164.43 85.0372C164.43 86.1625 163.943 87.461 162.969 88.9326L162.742 89.2897C162.006 90.4151 161.292 91.2807 160.6 91.8867C159.929 92.471 159.139 92.7632 158.23 92.7632C157.711 92.7632 157.159 92.655 156.574 92.4385C155.99 92.2005 155.341 91.8975 154.627 91.5296L135.604 80.525L139.824 78.2202V100.1C139.824 102.35 139.348 103.898 138.396 104.742C137.443 105.586 135.842 106.008 133.591 106.008H133.169Z" fill="white"/>
<path d="M202.552 167.184C200.301 167.184 198.7 166.762 197.748 165.918C196.795 165.074 196.319 163.527 196.319 161.276V139.397L200.604 141.702L181.549 152.706C180.857 153.074 180.197 153.377 179.569 153.615C178.963 153.853 178.4 153.972 177.881 153.972C176.95 153.972 176.128 153.669 175.414 153.063C174.721 152.457 174.04 151.559 173.369 150.369L173.174 150.077C172.763 149.319 172.427 148.616 172.168 147.967C171.93 147.318 171.811 146.712 171.811 146.149C171.811 145.262 172.103 144.472 172.687 143.779C173.293 143.087 174.159 142.427 175.284 141.799L194.696 130.6V135.242L175.316 124.594C174.169 123.967 173.325 123.307 172.784 122.614C172.243 121.922 171.973 121.142 171.973 120.277C171.973 119.714 172.081 119.119 172.297 118.491C172.514 117.842 172.795 117.139 173.141 116.381L173.336 116.024C173.899 114.769 174.548 113.839 175.284 113.233C176.02 112.605 176.831 112.291 177.719 112.291C178.281 112.291 178.887 112.41 179.537 112.648C180.186 112.886 180.867 113.211 181.582 113.622L200.604 124.627L196.319 126.932V105.085C196.319 102.834 196.795 101.287 197.748 100.443C198.7 99.5985 200.301 99.1765 202.552 99.1765H202.974C205.225 99.1765 206.826 99.5985 207.778 100.443C208.731 101.287 209.207 102.834 209.207 105.085V126.932L205.019 124.627L223.977 113.622C224.691 113.254 225.351 112.962 225.957 112.746C226.563 112.508 227.126 112.389 227.645 112.389C228.532 112.389 229.333 112.692 230.047 113.297C230.762 113.882 231.476 114.769 232.19 115.959L232.417 116.381C232.828 117.117 233.142 117.799 233.359 118.426C233.597 119.054 233.716 119.649 233.716 120.212C233.716 121.121 233.423 121.922 232.839 122.614C232.255 123.307 231.4 123.956 230.275 124.562L210.927 135.242V130.6L230.307 141.799C231.432 142.427 232.298 143.098 232.904 143.812C233.51 144.504 233.813 145.305 233.813 146.214C233.813 147.339 233.326 148.638 232.352 150.109L232.125 150.466C231.389 151.592 230.675 152.457 229.982 153.063C229.312 153.648 228.522 153.94 227.613 153.94C227.093 153.94 226.541 153.832 225.957 153.615C225.373 153.377 224.724 153.074 224.009 152.706L204.987 141.702L209.207 139.397V161.276C209.207 163.527 208.731 165.074 207.778 165.918C206.826 166.762 205.225 167.184 202.974 167.184H202.552Z" fill="white"/>
<path fill-rule="evenodd" clip-rule="evenodd" d="M126.937 83L112.166 91.53C111.474 91.8979 110.814 92.2008 110.186 92.4389C109.58 92.6769 109.018 92.796 108.498 92.796C107.568 92.796 106.745 92.493 106.031 91.887C105.338 91.2811 104.657 90.383 103.986 89.1927L103.791 88.9005C103.38 88.1431 103.044 87.4397 102.785 86.7905C102.547 86.1413 102.428 85.5353 102.428 84.9726C102.428 84.0853 102.72 83.2954 103.304 82.6029C103.91 81.9104 104.776 81.2503 105.901 80.6227L121.192 71.8011L105.934 63.4179C104.787 62.7903 103.943 62.1302 103.402 61.4377C102.861 60.7452 102.59 59.9661 102.59 59.1004C102.59 58.5377 102.698 57.9426 102.915 57.315C103.131 56.6658 103.412 55.9624 103.759 55.205L103.953 54.8479C104.516 53.5927 105.165 52.6621 105.901 52.0562C106.637 51.4286 107.449 51.1148 108.336 51.1148C108.898 51.1148 109.504 51.2338 110.154 51.4718C110.803 51.7099 111.485 52.0345 112.199 52.4457L126.937 60.9715V43.9082C126.937 41.6575 127.413 40.1101 128.365 39.2661C129.317 38.4221 130.919 38.0001 133.169 38.0001H133.591C135.842 38.0001 137.443 38.4221 138.396 39.2661C139.348 40.1101 139.824 41.6575 139.824 43.9082V61.0195L154.594 52.4457C155.308 52.0778 155.968 51.7856 156.574 51.5692C157.18 51.3312 157.743 51.2121 158.262 51.2121C159.15 51.2121 159.95 51.5151 160.665 52.1211C161.379 52.7054 162.093 53.5927 162.807 54.783L163.034 55.205C163.445 55.9408 163.759 56.6225 163.976 57.2501C164.214 57.8777 164.333 58.4728 164.333 59.0355C164.333 59.9444 164.041 60.7452 163.456 61.4377C162.872 62.1302 162.017 62.7794 160.892 63.3854L145.653 71.7975L160.924 80.6227C162.05 81.2503 162.915 81.9212 163.521 82.6354C164.127 83.3279 164.43 84.1286 164.43 85.0376C164.43 86.1629 163.943 87.4614 162.969 88.933L162.742 89.2901C162.006 90.4154 161.292 91.2811 160.6 91.887C159.929 92.4714 159.139 92.7635 158.23 92.7635C157.711 92.7635 157.159 92.6553 156.574 92.4389C155.99 92.2008 155.341 91.8979 154.627 91.53L139.824 82.9666V100.1C139.824 102.351 139.348 103.898 138.396 104.742C137.443 105.586 135.842 106.008 133.591 106.008H133.169C130.919 106.008 129.317 105.586 128.365 104.742C127.413 103.898 126.937 102.351 126.937 100.1V83ZM141.824 86.4344V100.1C141.824 102.51 141.337 104.808 139.722 106.239C138.212 107.578 135.991 108.008 133.591 108.008H133.169C130.77 108.008 128.549 107.578 127.038 106.239C125.424 104.808 124.936 102.51 124.936 100.1V86.4647L113.136 93.2797L113.105 93.2963C112.354 93.6952 111.621 94.0333 110.906 94.3049C110.128 94.6095 109.318 94.7961 108.498 94.7961C107.09 94.7961 105.81 94.3226 104.737 93.4121L104.714 93.3924C103.805 92.5977 103.005 91.5139 102.281 90.2415L102.077 89.9345L102.033 89.8548C101.593 89.0439 101.222 88.2692 100.928 87.5333L100.917 87.5063L100.907 87.479C100.606 86.658 100.428 85.8171 100.428 84.9726C100.428 83.6024 100.894 82.3581 101.776 81.3131L101.799 81.2856C102.6 80.3697 103.668 79.5795 104.914 78.8833L117.116 71.8436L104.974 65.1725C104.973 65.1722 104.974 65.1727 104.974 65.1725C103.694 64.4724 102.595 63.654 101.825 62.669C101.014 61.6306 100.59 60.4196 100.59 59.1004C100.59 58.2834 100.746 57.4704 101.02 56.673C101.263 55.9462 101.571 55.1789 101.94 54.3734L101.969 54.3092L102.162 53.9562C102.791 52.5726 103.586 51.3767 104.616 50.5233C105.676 49.6237 106.934 49.1146 108.336 49.1146C109.18 49.1146 110.021 49.2929 110.842 49.594C111.617 49.8779 112.402 50.2547 113.197 50.7124L113.2 50.7144L124.936 57.5037V43.9082C124.936 41.4978 125.424 39.2002 127.038 37.7694C128.549 36.4303 130.77 36 133.169 36H133.591C135.991 36 138.212 36.4303 139.722 37.7694C141.337 39.2002 141.824 41.4978 141.824 43.9082V57.5458L153.634 50.6907L153.678 50.6677C154.442 50.2741 155.175 49.947 155.873 49.6959C156.646 49.3956 157.449 49.212 158.262 49.212C159.645 49.212 160.894 49.6976 161.945 50.5843C162.898 51.3677 163.747 52.4618 164.522 53.7539L164.546 53.7938L164.788 54.2432C165.233 55.0413 165.595 55.8181 165.857 56.5697C166.158 57.3722 166.333 58.1987 166.333 59.0355C166.333 60.4149 165.875 61.6729 164.985 62.7275C164.189 63.6713 163.108 64.4626 161.849 65.1414L149.719 71.8374L161.912 78.8837C163.163 79.5825 164.233 80.3869 165.037 81.3298C165.951 82.3797 166.43 83.6427 166.43 85.0376C166.43 86.7147 165.719 88.3984 164.648 90.0213L164.416 90.3847C163.622 91.5992 162.794 92.625 161.917 93.3923L161.913 93.3953C160.87 94.3042 159.61 94.7636 158.23 94.7636C157.431 94.7636 156.643 94.5972 155.88 94.3145L155.85 94.3033L155.82 94.2912C155.168 94.0257 154.464 93.6961 153.711 93.308L153.667 93.2857L141.824 86.4344Z" fill="white"/>
<path fill-rule="evenodd" clip-rule="evenodd" d="M196.319 144.176L181.549 152.706C180.857 153.074 180.197 153.377 179.569 153.615C178.963 153.853 178.4 153.972 177.881 153.972C176.95 153.972 176.128 153.67 175.414 153.064C174.721 152.458 174.04 151.559 173.369 150.369L173.174 150.077C172.763 149.32 172.427 148.616 172.168 147.967C171.93 147.318 171.811 146.712 171.811 146.149C171.811 145.262 172.103 144.472 172.687 143.779C173.293 143.087 174.159 142.427 175.284 141.799L190.575 132.978L175.316 124.594C174.169 123.967 173.325 123.307 172.784 122.614C172.243 121.922 171.973 121.143 171.973 120.277C171.973 119.714 172.081 119.119 172.297 118.492C172.514 117.842 172.795 117.139 173.141 116.381L173.336 116.024C173.899 114.769 174.548 113.839 175.284 113.233C176.02 112.605 176.831 112.291 177.719 112.291C178.281 112.291 178.887 112.41 179.536 112.648C180.186 112.886 180.867 113.211 181.582 113.622L196.319 122.148V105.085C196.319 102.834 196.795 101.287 197.748 100.443C198.7 99.5986 200.301 99.1766 202.552 99.1766H202.974C205.225 99.1766 206.826 99.5986 207.778 100.443C208.731 101.287 209.207 102.834 209.207 105.085V122.196L223.977 113.622C224.691 113.254 225.351 112.962 225.957 112.746C226.563 112.508 227.126 112.389 227.645 112.389C228.532 112.389 229.333 112.692 230.047 113.298C230.762 113.882 231.476 114.769 232.19 115.959L232.417 116.381C232.828 117.117 233.142 117.799 233.358 118.427C233.597 119.054 233.716 119.649 233.716 120.212C233.716 121.121 233.423 121.922 232.839 122.614C232.255 123.307 231.4 123.956 230.275 124.562L215.036 132.974L230.307 141.799C231.432 142.427 232.298 143.098 232.904 143.812C233.51 144.504 233.813 145.305 233.813 146.214C233.813 147.339 233.326 148.638 232.352 150.11L232.125 150.467C231.389 151.592 230.675 152.458 229.982 153.064C229.312 153.648 228.522 153.94 227.613 153.94C227.093 153.94 226.541 153.832 225.957 153.615C225.373 153.377 224.724 153.074 224.009 152.706L209.207 144.143V161.276C209.207 163.527 208.731 165.074 207.778 165.919C206.826 166.763 205.225 167.185 202.974 167.185H202.552C200.301 167.185 198.7 166.763 197.748 165.919C196.795 165.074 196.319 163.527 196.319 161.276V144.176ZM211.207 147.611V161.276C211.207 163.687 210.719 165.984 209.105 167.415C207.594 168.754 205.373 169.185 202.974 169.185H202.552C200.153 169.185 197.932 168.754 196.421 167.415C194.807 165.984 194.319 163.687 194.319 161.276V147.641L182.519 154.456L182.487 154.473C181.737 154.872 181.003 155.21 180.289 155.481C179.51 155.786 178.701 155.973 177.881 155.973C176.473 155.973 175.193 155.499 174.12 154.589L174.097 154.569C173.188 153.774 172.388 152.69 171.664 151.418L171.459 151.111L171.416 151.031C170.976 150.22 170.605 149.446 170.311 148.71L170.3 148.683L170.29 148.656C169.989 147.835 169.81 146.994 169.81 146.149C169.81 144.779 170.277 143.535 171.158 142.49L171.182 142.462C171.983 141.546 173.051 140.756 174.297 140.06L186.499 133.02L174.356 126.349C174.356 126.349 174.357 126.349 174.356 126.349C173.077 125.649 171.978 124.83 171.208 123.846C170.397 122.807 169.973 121.596 169.973 120.277C169.973 119.46 170.129 118.647 170.403 117.849C170.646 117.123 170.954 116.355 171.322 115.55L171.352 115.486L171.544 115.133C172.173 113.749 172.968 112.553 173.999 111.7C175.059 110.8 176.317 110.291 177.719 110.291C178.563 110.291 179.404 110.469 180.225 110.77C180.999 111.054 181.785 111.431 182.58 111.889L182.583 111.891L194.319 118.68V105.085C194.319 102.674 194.807 100.377 196.421 98.9459C197.932 97.6068 200.153 97.1765 202.552 97.1765H202.974C205.373 97.1765 207.594 97.6068 209.105 98.9459C210.719 100.377 211.207 102.674 211.207 105.085V118.722L223.016 111.867L223.061 111.844C223.825 111.451 224.558 111.124 225.256 110.872C226.029 110.572 226.831 110.389 227.645 110.389C229.028 110.389 230.277 110.874 231.328 111.761C232.28 112.544 233.13 113.638 233.905 114.93L233.929 114.97L234.171 115.42C234.616 116.218 234.978 116.995 235.24 117.746C235.541 118.549 235.716 119.375 235.716 120.212C235.716 121.591 235.258 122.849 234.368 123.904C233.571 124.848 232.491 125.639 231.232 126.318L219.102 133.014L231.295 140.06C232.546 140.759 233.616 141.563 234.419 142.506C235.333 143.556 235.813 144.819 235.813 146.214C235.813 147.891 235.102 149.575 234.03 151.198L233.799 151.561C233.005 152.776 232.176 153.802 231.3 154.569L231.296 154.572C230.252 155.481 228.993 155.94 227.613 155.94C226.814 155.94 226.026 155.774 225.262 155.491L225.232 155.48L225.203 155.468C224.551 155.202 223.847 154.873 223.093 154.485L223.05 154.462L211.207 147.611Z" fill="white"/>
</svg>
