<svg width="320" height="320" viewBox="0 0 320 320" fill="none" xmlns="http://www.w3.org/2000/svg">
<circle cx="160" cy="200" r="120" fill="#FFF1E0"/>
<path d="M194.651 69.7537C193.898 70.0493 193.065 70.0762 192.259 70.0762C183.204 70.1299 174.121 68.1684 165.899 64.3528C162.675 62.8749 159.182 60.4296 159.208 56.8827C159.208 56.2647 159.343 55.6468 159.638 55.1094C160.848 52.9866 163.938 53.2821 166.302 53.8733C174.31 55.8079 182.344 57.7964 190.082 60.6178C190.297 59.8923 190.754 59.2205 191.211 58.6025C196.451 51.4818 200.508 43.5013 206.554 37.0524C207.548 35.9776 208.677 34.9296 210.074 34.5534C211.471 34.1772 213.245 34.7415 213.755 36.1119C214.158 37.2405 213.648 38.4496 213.137 39.5245C210.853 44.3611 208.569 49.2247 206.285 54.0614C204.136 58.6025 201.825 63.3317 197.902 66.3949C196.988 67.7116 196.155 69.1626 194.651 69.7537Z" fill="#F2E7D6"/>
<path d="M175.581 111.477C173.754 116.905 173.673 122.978 175.313 128.486C175.474 129.024 175.635 129.561 175.581 130.098C175.447 131.173 174.506 131.872 173.593 132.356C169.052 134.801 163.785 135.043 158.707 135.07C150.538 135.096 142.343 134.613 134.201 133.645C133.26 132.49 133.905 130.77 134.335 129.319C135.625 124.993 134.658 120.291 134.201 115.777C134.147 115.266 134.12 114.702 134.335 114.245C134.55 113.815 134.953 113.546 135.33 113.304C141.08 109.704 147.744 107.742 154.434 107.742C157.148 107.742 159.862 108.065 162.549 108.468C166.983 109.193 171.309 110.187 175.581 111.477Z" fill="#F2E7D6"/>
<path d="M159.621 271.115C163.276 270.819 166.957 270.98 170.584 271.571C173.379 273.64 176.442 275.36 179.666 276.677C180.607 277.053 181.601 277.429 182.273 278.155C182.971 278.88 183.24 280.116 182.595 280.895C182.031 281.567 181.037 281.648 180.15 281.648C173.406 281.728 166.634 281.137 159.971 279.928C159.567 279.847 159.137 279.767 158.869 279.471C158.627 279.256 158.519 278.934 158.439 278.611C157.767 276.112 158.224 273.318 159.621 271.115Z" fill="#333333"/>
<path d="M128.398 268.804C131.676 269.18 134.9 269.959 137.99 271.115C140.086 273.426 142.478 275.495 145.111 277.187C145.863 277.698 146.67 278.182 147.153 278.961C147.637 279.74 147.664 280.869 146.965 281.433C146.347 281.943 145.46 281.836 144.681 281.675C138.716 280.546 132.831 278.88 127.188 276.65C126.839 276.516 126.49 276.354 126.275 276.059C126.114 275.817 126.06 275.521 126.06 275.226C125.899 272.915 126.786 270.497 128.398 268.804Z" fill="#333333"/>
<path d="M131.354 205.443C132.267 185.479 130.359 165.111 130.52 145.038C129.929 138.079 130.897 130.985 133.342 124.429C133.503 124.026 133.664 123.596 133.96 123.3C134.9 122.333 136.513 122.844 137.749 123.354C149.679 128.271 163.786 127.116 174.668 120.156C176.818 123.435 177.436 127.438 177.973 131.335C178.833 137.622 179.774 143.883 179.989 150.171V150.198C180.042 151.541 180.069 152.912 180.042 154.255C179.881 162.101 178.376 169.867 177.194 177.605C176.415 182.657 175.743 187.736 175.689 192.868C175.636 197.06 176.227 200.875 175.286 204.986C172.976 215.09 172.976 226.08 172.008 236.398C170.96 247.442 169.939 258.512 169.079 269.556C169.053 269.986 168.999 270.443 168.972 270.873C168.408 271.034 159.89 272.969 159.89 270.765C159.218 249.296 158.519 227.799 157.848 206.33C157.552 197.301 157.257 188.112 154.973 179.513C154.032 179.621 153.092 179.701 152.151 179.809C146.965 208.238 141.779 236.667 136.593 265.096C136.136 267.595 135.572 270.309 133.933 271.921C132.294 273.533 129.204 273.076 128.72 270.577C130.198 248.893 130.386 227.182 131.354 205.443Z" fill="#EDDDDD"/>
<path d="M167.869 43.4948C166.418 44.274 164.886 44.9727 163.247 45.5101C156.771 47.5522 148.898 46.6118 143.551 43.1187C139.225 44.2472 136.135 47.2298 134.549 50.5617C132.964 53.8668 132.668 57.4675 132.4 60.9875C131.137 77.486 129.874 93.9844 128.611 110.51C128.557 111.343 128.503 112.203 128.96 112.955C129.927 114.46 132.48 114.755 134.63 114.863C149.274 115.508 163.972 115.239 178.563 114.084C179.154 114.03 179.799 113.976 180.31 113.734C181.438 113.197 181.599 111.988 181.599 110.966C181.949 95.301 180.901 79.5819 178.482 64.0239C177.595 58.3273 176.494 52.5501 173.35 47.3373C172.705 46.2893 171.926 45.2145 170.69 44.5428C169.454 43.871 169.105 42.823 167.869 43.4948Z" fill="#90B7D2"/>
<path d="M141.778 20.8701C141.966 18.9892 142.289 17.1082 142.853 15.3079C144.842 9.02023 152.231 0.126097 159.781 3.37742C161.528 4.1298 162.979 5.44642 164.349 6.78994C165.747 8.16034 167.09 9.61132 168.219 11.2236C170.341 14.2599 171.685 18.0755 171.712 21.8105C171.739 25.2768 170.503 28.8506 169.32 32.0751C167.762 36.3475 165.558 40.7811 161.528 42.877C156.154 45.6715 149.141 43.0651 145.513 38.2284C141.913 33.3649 141.16 26.8891 141.778 20.8701Z" fill="#F2E7D6"/>
<path d="M199.647 50.8636C199.486 51.4279 199.325 52.0459 199.674 52.6371C200.077 53.282 200.991 53.685 201.824 54.0075C204.054 54.8673 206.284 55.9152 208.541 56.5601C209.992 53.7925 210.664 50.5143 211.605 47.6123C212.599 44.4953 213.539 41.3784 214.453 38.2882C215.313 35.3056 216.119 32.2961 216.898 29.3135C217.597 26.5459 218.725 23.6707 218.886 20.7956C217.785 20.3388 215.635 20.9836 214.533 21.118C212.867 21.3329 211.201 21.5211 209.509 21.736C209.052 21.7898 208.568 21.8435 208.219 22.0585C207.762 22.354 207.601 22.8377 207.466 23.3214C204.887 32.323 202.281 41.5127 199.647 50.8636Z" fill="#666666"/>
<path d="M201.341 49.7886C201.207 50.2722 201.073 50.8096 201.288 51.2933C201.53 51.8307 202.121 52.1263 202.685 52.3681C204.163 53.013 205.641 53.8191 207.119 54.3028C208.22 51.8844 208.838 49.0631 209.591 46.5104C210.423 43.7696 211.203 41.0288 211.982 38.2611C212.734 35.5741 213.433 32.9139 214.105 30.2C214.723 27.701 215.663 25.0678 215.932 22.4345C215.179 22.0583 213.648 22.7569 212.842 22.945C211.659 23.2137 210.477 23.4824 209.295 23.7511C208.973 23.8317 208.623 23.9123 208.381 24.1273C208.059 24.396 207.925 24.8796 207.79 25.3095C205.668 33.4782 203.491 41.6199 201.341 49.7886Z" fill="#F2F2F2"/>
<path opacity="0.56" d="M207.413 31.3826C209.294 31.9469 211.309 31.9469 213.27 31.3826C211.954 37.536 210.342 43.6356 208.407 49.6008C206.526 48.5529 204.672 47.5049 202.791 46.457C203.516 41.4322 204.86 36.4611 206.714 31.7857C206.768 31.6513 206.848 31.4901 206.956 31.4095C207.117 31.302 207.278 31.3558 207.413 31.3826Z" fill="#FBB03B"/>
<path d="M207.306 36.2999C207.414 35.9237 207.494 35.5206 207.79 35.0638C207.951 34.8219 208.166 34.5533 208.327 34.2846C208.515 34.0159 208.65 33.7203 208.623 33.6128C208.569 33.5053 208.3 33.6128 208.032 33.8815C207.817 34.0964 207.709 34.3114 207.548 34.5264C207.414 34.7414 207.145 34.9832 207.064 34.9563C207.091 34.8489 207.118 34.7682 207.091 34.7144C207.064 34.6607 206.957 34.7145 206.849 34.8219C206.796 34.8757 206.742 34.9563 206.715 35.0101C206.554 35.2788 206.446 35.5206 206.446 35.6549C206.446 35.8161 206.581 35.8699 206.661 35.9773C206.742 36.0848 206.796 36.3267 206.581 36.6223C206.446 36.8104 206.258 36.9716 206.097 37.0253C205.963 37.0522 205.882 36.9716 205.909 36.8372C205.936 36.7297 205.99 36.6223 206.016 36.5148C206.043 36.4073 206.043 36.3267 205.963 36.3536C205.882 36.3804 205.775 36.4879 205.721 36.5954C205.667 36.7029 205.64 36.7835 205.613 36.891C205.533 37.1597 205.398 37.4284 205.237 37.6702C205.264 37.8046 205.398 37.8046 205.533 37.8046C205.694 37.7777 205.855 37.7508 205.99 37.8314C206.124 37.912 206.178 38.1807 206.016 38.4226C206.393 38.3688 206.849 38.342 207.36 38.3958C207.252 37.9927 207.817 37.4552 208.462 37.079C209.214 36.6491 210.316 36.1924 211.283 35.44C212.707 34.3114 212.922 33.2097 211.713 33.2903C211.444 33.3172 211.122 33.3978 210.773 33.559C209.966 33.9352 209.241 34.6339 208.865 35.1176C208.515 35.5744 208.3 36.0042 207.924 36.4073C207.817 36.5416 207.655 36.6491 207.521 36.7297C207.279 36.8641 207.252 36.5686 207.306 36.2999Z" fill="#8CC674"/>
<path d="M204.78 41.7008C204.78 41.647 204.78 41.5934 204.78 41.5127C204.968 40.2767 205.13 39.2288 205.264 38.3152C206.097 38.0733 207.494 37.8315 210.289 37.4822C209.563 39.9811 208.677 42.5876 207.656 45.1134C206.231 43.4205 205.371 42.4263 204.834 41.7814C204.807 41.7814 204.78 41.7545 204.78 41.7008Z" fill="#8EABE2"/>
<path d="M205.748 36.7566C205.882 36.5954 205.963 36.4073 205.963 36.273C205.963 36.1655 205.882 36.1118 205.775 36.1924C205.748 36.2999 205.721 36.3804 205.694 36.4879C205.694 36.4073 205.613 36.4342 205.533 36.5148C205.506 36.5686 205.479 36.6223 205.506 36.6491C205.506 36.676 205.533 36.676 205.56 36.676C205.533 36.676 205.479 36.7298 205.425 36.7835C205.372 36.8373 205.345 36.9179 205.345 36.9716C205.425 36.9448 205.506 36.9179 205.586 36.891C205.613 36.891 205.667 36.8641 205.694 36.8372C205.694 36.8104 205.721 36.7835 205.748 36.7566Z" fill="#FF8CAA"/>
<path d="M208.354 37.9926C208.408 37.8314 208.677 37.8045 208.677 37.9658C208.569 39.1212 208.273 40.411 207.978 41.7276C207.924 41.9694 207.521 41.7545 207.575 41.5127C207.817 40.2766 208.005 39.0943 208.354 37.9926Z" fill="#A1B5D6"/>
<path d="M206.929 38.2615C206.956 38.154 207.144 38.1272 207.117 38.2347C206.956 39.0139 206.956 39.8737 206.741 40.7605C206.687 40.9485 206.445 40.8411 206.472 40.653C206.66 39.82 206.687 38.987 206.929 38.2615Z" fill="#A1B5D6"/>
<path d="M206.204 38.3688C206.097 38.9868 205.963 39.6586 205.855 40.3841C205.828 40.5453 205.667 40.5184 205.694 40.3572C205.802 39.6585 205.936 38.9868 206.097 38.3419C206.097 38.2881 206.204 38.2882 206.204 38.3688Z" fill="#A1B5D6"/>
<path d="M205.721 38.4227C205.641 38.987 205.56 39.5781 205.479 40.223C205.453 40.3574 205.318 40.3574 205.345 40.223C205.426 39.605 205.533 39.0139 205.641 38.4765C205.614 38.3959 205.721 38.3421 205.721 38.4227Z" fill="#A1B5D6"/>
<path opacity="0.56" d="M225.49 58.7841C230.397 62.7452 236.256 65.8504 242.523 67.8106C232.554 77.3682 221.78 86.3694 210.202 94.6205C205.778 89.7487 201.432 84.9181 197.008 80.0464C204.132 71.7028 213 64.4131 223.057 58.4664C223.347 58.2963 223.742 58.1168 224.135 58.1307C224.711 58.1767 225.126 58.5265 225.49 58.7841Z" fill="#FBB03B"/>
<path d="M220.273 67.8788C220.961 67.3361 221.598 66.7015 222.914 66.2968C223.624 66.0899 224.516 65.9151 225.253 65.6576C226.068 65.4415 226.754 65.0919 226.783 64.8481C226.734 64.5629 225.846 64.3512 224.796 64.4431C223.957 64.5166 223.429 64.7556 222.746 64.912C222.141 65.1097 221.119 65.1513 220.911 64.9765C221.096 64.8155 221.255 64.705 221.231 64.5624C221.206 64.4198 220.839 64.3551 220.419 64.3918C220.209 64.4102 219.973 64.4795 219.842 64.5393C219.105 64.7968 218.551 65.0866 218.417 65.3396C218.256 65.6432 218.593 65.9512 218.72 66.2778C218.847 66.6044 218.762 67.1426 217.842 67.3679C217.263 67.515 216.556 67.529 216.034 67.3817C215.616 67.2253 215.462 66.949 215.674 66.7374C215.859 66.5764 216.123 66.457 216.308 66.2961C216.494 66.1351 216.574 65.9832 216.313 65.9096C216.052 65.836 215.632 65.8729 215.369 65.9924C215.105 66.112 214.946 66.2223 214.761 66.3833C214.258 66.765 213.599 67.0638 212.889 67.2707C212.833 67.5651 213.224 67.7721 213.615 67.9792C214.11 68.177 214.606 68.375 214.916 68.7338C215.227 69.0926 215.115 69.6814 214.405 69.8883C215.552 70.3669 216.907 71.0203 218.338 71.9082C218.428 70.9836 220.605 70.8413 222.856 71.1267C225.473 71.4766 229.131 72.3139 232.695 72.3878C237.962 72.4574 239.687 70.7142 236.091 69.0027C235.282 68.6392 234.265 68.2943 233.088 68.0595C230.368 67.5257 227.561 67.7229 225.984 68.054C224.513 68.3758 223.459 68.8541 221.963 69.0334C221.516 69.1207 220.94 69.0745 220.469 69.0193C219.632 68.8996 219.849 68.302 220.273 67.8788Z" fill="#8CC674"/>
<path d="M207.539 74.1561C207.592 74.055 207.646 73.9539 207.726 73.8021C209.507 71.7645 211.022 70.0399 212.324 68.5267C214.988 69.3549 219.292 71.0527 227.766 74.7013C223.163 78.2887 217.984 81.8302 212.494 85.0128C210.043 79.6307 208.534 76.4333 207.615 74.3908C207.537 74.3494 207.485 74.2573 207.539 74.1561Z" fill="#8EABE2"/>
<path d="M215.286 66.3373C215.837 66.2408 216.259 66.0107 216.393 65.7577C216.501 65.5553 216.32 65.3301 215.927 65.3163C215.742 65.4773 215.583 65.5875 215.398 65.7484C215.478 65.5967 215.216 65.5228 214.902 65.5504C214.77 65.6102 214.638 65.6699 214.689 65.7619C214.663 65.8125 214.741 65.854 214.819 65.8954C214.741 65.854 214.531 65.8727 214.322 65.8911C214.112 65.9095 213.953 66.0198 213.899 66.121C214.16 66.1946 214.421 66.2681 214.683 66.3417C214.761 66.3831 214.944 66.4154 215.049 66.4062C215.076 66.3556 215.181 66.3465 215.286 66.3373Z" fill="#FF8CAA"/>
<path d="M221.631 72.6813C221.949 72.4605 222.757 72.8241 222.596 73.1277C221.13 75.1377 218.984 77.1108 216.81 79.1345C216.413 79.5071 215.455 78.4811 215.853 78.1086C217.789 76.1538 219.516 74.2175 221.631 72.6813Z" fill="#A1B5D6"/>
<path d="M217.219 70.9914C217.405 70.8304 217.979 71.0701 217.794 71.231C216.547 72.4499 215.689 74.0688 214.179 75.4072C213.835 75.6786 213.239 75.1032 213.504 74.7904C214.883 73.5118 215.792 71.9848 217.219 70.9914Z" fill="#A1B5D6"/>
<path d="M215.005 70.0768C214.076 71.0749 213.015 72.1328 211.978 73.3332C211.739 73.5954 211.298 73.2966 211.537 73.0344C212.546 71.8845 213.608 70.8268 214.72 69.8609C214.774 69.7597 215.085 69.925 215.005 70.0768Z" fill="#A1B5D6"/>
<path d="M213.547 69.4339C212.75 70.3723 211.925 71.3609 211.047 72.4509C210.835 72.6625 210.445 72.4558 210.657 72.2442C211.508 71.2047 212.41 70.2572 213.259 69.4109C213.261 69.2177 213.628 69.2822 213.547 69.4339Z" fill="#A1B5D6"/>
<path d="M222.089 13.2494C221.172 14.6508 220.256 16.0073 219.316 17.3868C218.927 17.9522 217.996 17.4306 218.386 16.8652C219.347 15.5078 220.308 14.1504 221.292 12.7703C221.657 12.3171 222.433 12.7294 222.089 13.2494Z" fill="#4D4D4D"/>
<path d="M222.929 18.3879C223.727 17.9983 224.607 17.5429 225.281 16.9615C225.73 16.5609 226.364 17.1942 225.939 17.6192C225.174 18.3839 224.432 18.838 223.471 19.3073C222.852 19.5854 222.311 18.7141 222.929 18.3879Z" fill="#4D4D4D"/>
<path d="M223.034 21.8405C224.629 22.8069 226.024 24.1597 227.16 25.6314C227.538 26.0925 226.974 26.7026 226.574 26.2183C225.377 24.8537 224.019 23.7896 222.573 22.7207C222 22.3156 222.419 21.4773 223.034 21.8405Z" fill="#4D4D4D"/>
<path d="M142.773 63.7554C143.203 63.3254 143.741 62.9761 144.332 62.8149C146.696 62.17 148.658 64.5614 149.921 66.6573C154.193 73.6974 158.493 80.7913 161.959 88.2344C162.631 87.8582 163.437 87.7237 164.189 87.6163C172.922 86.2996 180.204 85.3861 189.85 84.3381C190.173 84.3113 190.549 84.2306 190.898 84.1231C193.102 83.317 195.412 82.0273 196.756 80.8987C197.132 80.5763 197.535 80.2269 197.992 80.0389C198.449 79.8508 199.04 79.797 199.443 80.0926C199.846 80.3881 199.98 81.06 199.604 81.4093C200.733 81.06 201.861 80.7375 203.043 80.8449C204.199 80.9524 205.408 81.5973 205.784 82.699C206.295 84.1769 205.193 85.7354 203.93 86.6759C201.109 88.7986 196.433 90.1421 192.698 90.169C190.898 90.9482 188.883 91.4587 187.647 91.8081C182.138 93.474 176.63 95.1401 171.148 96.8061C168.542 97.5853 165.909 98.3913 163.168 98.3376C161.69 98.3107 160.266 97.9614 158.922 97.3703C150.646 93.7696 144.843 80.8449 142.209 73.6974C140.973 70.4461 140.221 66.2274 142.773 63.7554Z" fill="#F2E7D6"/>
<path d="M135.009 136.144C135.17 135.741 135.815 135.903 135.654 136.332C135.197 137.488 134.929 138.67 134.794 139.906C134.74 140.363 134.015 140.363 134.069 139.906C134.203 138.59 134.498 137.353 135.009 136.144Z" fill="#DBBABA"/>
<path d="M133.072 149.391C133.126 148.961 133.771 148.961 133.744 149.391C133.663 150.251 133.583 151.111 133.502 151.971C133.475 152.401 132.776 152.401 132.83 151.971C132.911 151.111 132.991 150.251 133.072 149.391Z" fill="#DBBABA"/>
<path d="M133.234 163.391C133.234 162.934 133.933 162.934 133.933 163.391C133.933 164.331 133.933 165.272 133.933 166.185C133.933 166.642 133.234 166.642 133.234 166.185C133.234 165.245 133.234 164.331 133.234 163.391Z" fill="#DBBABA"/>
<path d="M132.805 179.137C132.805 178.707 133.477 178.707 133.477 179.137C133.477 180.131 133.477 181.152 133.477 182.146C133.477 182.603 132.778 182.603 132.778 182.146C132.805 181.152 132.805 180.131 132.805 179.137Z" fill="#DBBABA"/>
<path d="M133.557 191.417C133.503 191.041 134.175 190.933 134.229 191.336C134.39 192.599 134.444 193.835 134.363 195.098C134.336 195.555 133.611 195.555 133.638 195.098C133.745 193.862 133.718 192.626 133.557 191.417Z" fill="#DBBABA"/>
<path d="M133.557 206.276C133.503 205.846 134.202 205.846 134.255 206.276C134.417 207.781 134.444 209.286 134.363 210.817C134.336 211.274 133.637 211.274 133.664 210.817C133.745 209.313 133.718 207.808 133.557 206.276Z" fill="#DBBABA"/>
<path d="M133.233 220.732C133.26 220.276 133.959 220.276 133.959 220.732C133.878 222.103 133.797 223.473 133.717 224.817C133.69 225.3 132.938 225.3 132.964 224.817C133.045 223.473 133.126 222.103 133.233 220.732Z" fill="#DBBABA"/>
<path d="M132.133 233.469C132.106 232.986 132.858 232.986 132.858 233.469C132.939 235.028 132.858 236.559 132.643 238.091C132.562 238.575 131.837 238.387 131.891 237.876C132.106 236.425 132.186 234.947 132.133 233.469Z" fill="#DBBABA"/>
<path d="M131.755 249.86C131.809 249.43 132.508 249.403 132.454 249.86C132.373 250.639 132.292 251.446 132.185 252.225C132.131 252.655 131.433 252.682 131.487 252.225C131.594 251.446 131.675 250.639 131.755 249.86Z" fill="#DBBABA"/>
<path d="M130.736 262.435C131.058 261.602 131.192 260.77 131.031 259.883C130.951 259.319 131.81 259.077 131.891 259.641C132.052 260.743 131.945 261.737 131.515 262.758C131.354 263.215 130.548 262.892 130.736 262.435Z" fill="#DBBABA"/>
<path d="M167.896 267.218C168.058 266.735 168.837 266.95 168.676 267.433C168.488 268.051 168.407 268.643 168.46 269.261C168.514 269.744 167.762 269.744 167.708 269.261C167.628 268.562 167.708 267.89 167.896 267.218Z" fill="#DBBABA"/>
<path d="M167.736 256.739C167.79 256.309 168.462 256.309 168.435 256.739C168.354 257.518 168.273 258.324 168.166 259.104C168.112 259.533 167.467 259.533 167.494 259.104C167.575 258.324 167.656 257.545 167.736 256.739Z" fill="#DBBABA"/>
<path d="M168.836 242.444C169.159 241.503 169.374 240.509 169.428 239.515C169.455 239.031 170.207 239.031 170.18 239.515C170.099 240.59 169.884 241.638 169.535 242.632C169.374 243.062 168.702 242.874 168.836 242.444Z" fill="#DBBABA"/>
<path d="M170.556 225.166C170.664 224.682 171.416 224.897 171.309 225.381C171.174 226.053 171.067 226.724 171.013 227.423C170.986 227.88 170.314 227.88 170.314 227.423C170.314 226.671 170.368 225.918 170.556 225.166Z" fill="#DBBABA"/>
<path d="M171.686 211.892C171.686 213.047 171.659 214.203 171.659 215.332C171.659 215.761 170.987 215.761 170.987 215.332C170.987 214.176 170.96 213.021 170.96 211.892C170.933 211.408 171.713 211.408 171.686 211.892Z" fill="#DBBABA"/>
<path d="M171.096 200.311C171.069 199.8 171.848 199.8 171.902 200.311C172.036 201.574 171.929 202.783 171.714 204.019C171.633 204.476 170.962 204.288 171.015 203.831C171.204 202.649 171.177 201.466 171.096 200.311Z" fill="#DBBABA"/>
<path d="M173.002 189.16C173.109 188.676 173.835 188.864 173.754 189.375C173.566 190.396 173.539 191.417 173.593 192.465C173.62 192.948 172.921 192.922 172.867 192.465C172.733 191.336 172.787 190.261 173.002 189.16Z" fill="#DBBABA"/>
<path d="M173.244 176.101C173.218 175.617 173.97 175.617 174.024 176.101C174.131 177.337 174.051 178.573 173.809 179.809C173.728 180.239 173.083 180.05 173.164 179.621C173.325 178.465 173.352 177.283 173.244 176.101Z" fill="#DBBABA"/>
<path d="M175.904 161.268C175.904 162.531 175.904 163.821 175.904 165.084C175.904 165.54 175.206 165.54 175.206 165.084C175.206 163.821 175.206 162.531 175.206 161.268C175.206 160.811 175.904 160.811 175.904 161.268Z" fill="#DBBABA"/>
<path d="M176.362 147.242C176.362 148.585 176.362 149.929 176.362 151.272C176.362 151.756 175.637 151.756 175.637 151.272C175.637 149.929 175.637 148.585 175.637 147.242C175.61 146.758 176.362 146.758 176.362 147.242Z" fill="#DBBABA"/>
<path d="M175.234 131.576C175.744 132.49 175.959 133.484 175.933 134.532C175.906 134.989 175.207 134.989 175.207 134.532C175.234 133.619 175.019 132.785 174.589 131.952C174.374 131.523 174.992 131.173 175.234 131.576Z" fill="#DBBABA"/>
<path d="M173.217 126.283C173.728 126.283 173.728 127.062 173.217 127.062C172.734 127.062 172.734 126.283 173.217 126.283Z" fill="#DBBABA"/>
<path d="M152.821 19.016C151.8 21.1926 151.156 23.5571 150.914 25.9486C150.296 25.8142 150.134 24.9544 149.651 24.5782C148.764 23.8795 147.501 25.0887 147.528 26.2173C147.555 27.3459 148.28 28.3132 148.629 29.388C149.409 31.8063 148.28 34.4934 148.818 36.9655C148.979 37.7179 149.301 38.4433 149.516 39.1957C150.188 41.5603 149.866 44.1668 150.725 46.4508C151.558 48.7079 153.493 50.5619 153.708 52.9534C147.205 53.1415 140.676 53.3296 134.174 53.5177C133.582 53.5446 132.91 53.5177 132.534 53.0609C132.212 52.7116 132.185 52.1741 132.185 51.6905C131.916 42.0171 132.722 32.3438 134.576 22.8585C135.463 18.3443 136.619 13.8032 138.849 9.7726C141.079 5.74203 144.492 2.24888 148.818 0.797871C154.192 -1.02932 160.157 0.502227 165.182 3.1624C168.997 5.17769 172.786 8.26782 173.511 12.594C173.78 14.2331 173.458 16.1408 172.141 17.1082C171.442 17.6187 170.556 17.8069 169.723 17.9143C166.418 18.3174 163.543 17.6187 160.345 17.0545C157.363 16.5171 156.127 18.9622 154.944 21.3806C154.031 20.7626 153.386 19.8759 152.821 19.016Z" fill="#FFB865"/>
</svg>
